<mxfile host="app.diagrams.net" modified="2021-02-21T21:31:58.670Z" agent="5.0 (Windows NT 10.0; Win64; x64) AppleWebKit/537.36 (KHTML, like Gecko) Chrome/88.0.4324.182 Safari/537.36 Edg/88.0.705.74" etag="G6finn6S7RYJFbtDjmIa" version="14.4.2" type="github">
  <diagram id="1VPJ3Hd9lF6UjsSATq8r" name="Page-1">
    <mxGraphModel dx="2300" dy="661" grid="1" gridSize="10" guides="1" tooltips="1" connect="1" arrows="1" fold="1" page="1" pageScale="1" pageWidth="850" pageHeight="1100" math="0" shadow="0">
      <root>
        <mxCell id="0" />
        <mxCell id="1" parent="0" />
        <mxCell id="znPlxjw7haN4OXwRD-w--1" value="Email_id" style="rounded=0;whiteSpace=wrap;html=1;" vertex="1" parent="1">
          <mxGeometry x="130" y="300" width="120" height="60" as="geometry" />
        </mxCell>
        <mxCell id="znPlxjw7haN4OXwRD-w--44" style="edgeStyle=orthogonalEdgeStyle;rounded=0;orthogonalLoop=1;jettySize=auto;html=1;entryX=0.5;entryY=0;entryDx=0;entryDy=0;" edge="1" parent="1" source="znPlxjw7haN4OXwRD-w--2" target="znPlxjw7haN4OXwRD-w--40">
          <mxGeometry relative="1" as="geometry" />
        </mxCell>
        <mxCell id="znPlxjw7haN4OXwRD-w--2" value="Username" style="rounded=0;whiteSpace=wrap;html=1;" vertex="1" parent="1">
          <mxGeometry x="250" y="300" width="120" height="60" as="geometry" />
        </mxCell>
        <mxCell id="znPlxjw7haN4OXwRD-w--3" value="password" style="rounded=0;whiteSpace=wrap;html=1;" vertex="1" parent="1">
          <mxGeometry x="370" y="300" width="120" height="60" as="geometry" />
        </mxCell>
        <mxCell id="znPlxjw7haN4OXwRD-w--35" style="edgeStyle=orthogonalEdgeStyle;rounded=0;orthogonalLoop=1;jettySize=auto;html=1;entryX=0.5;entryY=0;entryDx=0;entryDy=0;" edge="1" parent="1" source="znPlxjw7haN4OXwRD-w--13" target="znPlxjw7haN4OXwRD-w--33">
          <mxGeometry relative="1" as="geometry">
            <Array as="points">
              <mxPoint x="180" y="620" />
              <mxPoint x="770" y="620" />
            </Array>
          </mxGeometry>
        </mxCell>
        <mxCell id="znPlxjw7haN4OXwRD-w--43" style="edgeStyle=orthogonalEdgeStyle;rounded=0;orthogonalLoop=1;jettySize=auto;html=1;entryX=0.5;entryY=0;entryDx=0;entryDy=0;" edge="1" parent="1" source="znPlxjw7haN4OXwRD-w--13" target="znPlxjw7haN4OXwRD-w--39">
          <mxGeometry relative="1" as="geometry">
            <Array as="points">
              <mxPoint x="180" y="470" />
              <mxPoint x="1210" y="470" />
            </Array>
          </mxGeometry>
        </mxCell>
        <mxCell id="znPlxjw7haN4OXwRD-w--13" value="ISBN" style="rounded=0;whiteSpace=wrap;html=1;" vertex="1" parent="1">
          <mxGeometry x="120" y="510" width="120" height="60" as="geometry" />
        </mxCell>
        <mxCell id="znPlxjw7haN4OXwRD-w--14" value="title" style="rounded=0;whiteSpace=wrap;html=1;" vertex="1" parent="1">
          <mxGeometry x="240" y="510" width="120" height="60" as="geometry" />
        </mxCell>
        <mxCell id="znPlxjw7haN4OXwRD-w--15" value="cover" style="rounded=0;whiteSpace=wrap;html=1;" vertex="1" parent="1">
          <mxGeometry x="360" y="510" width="120" height="60" as="geometry" />
        </mxCell>
        <mxCell id="znPlxjw7haN4OXwRD-w--16" value="genre" style="rounded=0;whiteSpace=wrap;html=1;" vertex="1" parent="1">
          <mxGeometry x="480" y="510" width="120" height="60" as="geometry" />
        </mxCell>
        <mxCell id="znPlxjw7haN4OXwRD-w--17" value="publisher" style="rounded=0;whiteSpace=wrap;html=1;" vertex="1" parent="1">
          <mxGeometry x="600" y="510" width="120" height="60" as="geometry" />
        </mxCell>
        <mxCell id="znPlxjw7haN4OXwRD-w--18" value="language" style="rounded=0;whiteSpace=wrap;html=1;" vertex="1" parent="1">
          <mxGeometry x="720" y="510" width="120" height="60" as="geometry" />
        </mxCell>
        <mxCell id="znPlxjw7haN4OXwRD-w--19" value="published_date" style="rounded=0;whiteSpace=wrap;html=1;" vertex="1" parent="1">
          <mxGeometry x="840" y="510" width="120" height="60" as="geometry" />
        </mxCell>
        <mxCell id="znPlxjw7haN4OXwRD-w--20" value="copies" style="rounded=0;whiteSpace=wrap;html=1;" vertex="1" parent="1">
          <mxGeometry x="960" y="510" width="120" height="60" as="geometry" />
        </mxCell>
        <mxCell id="znPlxjw7haN4OXwRD-w--36" style="edgeStyle=orthogonalEdgeStyle;rounded=0;orthogonalLoop=1;jettySize=auto;html=1;entryX=0.5;entryY=0;entryDx=0;entryDy=0;" edge="1" parent="1" source="znPlxjw7haN4OXwRD-w--22" target="znPlxjw7haN4OXwRD-w--32">
          <mxGeometry relative="1" as="geometry">
            <Array as="points">
              <mxPoint x="180" y="700" />
              <mxPoint x="650" y="700" />
            </Array>
          </mxGeometry>
        </mxCell>
        <mxCell id="znPlxjw7haN4OXwRD-w--22" value="id" style="rounded=0;whiteSpace=wrap;html=1;" vertex="1" parent="1">
          <mxGeometry x="120" y="740" width="120" height="60" as="geometry" />
        </mxCell>
        <mxCell id="znPlxjw7haN4OXwRD-w--23" value="name" style="rounded=0;whiteSpace=wrap;html=1;" vertex="1" parent="1">
          <mxGeometry x="240" y="740" width="120" height="60" as="geometry" />
        </mxCell>
        <mxCell id="znPlxjw7haN4OXwRD-w--31" style="edgeStyle=orthogonalEdgeStyle;rounded=0;orthogonalLoop=1;jettySize=auto;html=1;entryX=0.5;entryY=0;entryDx=0;entryDy=0;" edge="1" parent="1" source="znPlxjw7haN4OXwRD-w--24" target="znPlxjw7haN4OXwRD-w--28">
          <mxGeometry relative="1" as="geometry" />
        </mxCell>
        <mxCell id="znPlxjw7haN4OXwRD-w--24" value="dname" style="rounded=0;whiteSpace=wrap;html=1;" vertex="1" parent="1">
          <mxGeometry x="120" y="910" width="120" height="60" as="geometry" />
        </mxCell>
        <mxCell id="znPlxjw7haN4OXwRD-w--25" value="floor_no" style="rounded=0;whiteSpace=wrap;html=1;" vertex="1" parent="1">
          <mxGeometry x="240" y="910" width="120" height="60" as="geometry" />
        </mxCell>
        <mxCell id="znPlxjw7haN4OXwRD-w--26" value="type" style="rounded=0;whiteSpace=wrap;html=1;" vertex="1" parent="1">
          <mxGeometry x="490" y="300" width="120" height="60" as="geometry" />
        </mxCell>
        <mxCell id="znPlxjw7haN4OXwRD-w--27" value="fine" style="rounded=0;whiteSpace=wrap;html=1;" vertex="1" parent="1">
          <mxGeometry x="610" y="300" width="120" height="60" as="geometry" />
        </mxCell>
        <mxCell id="znPlxjw7haN4OXwRD-w--55" style="edgeStyle=orthogonalEdgeStyle;rounded=0;orthogonalLoop=1;jettySize=auto;html=1;" edge="1" parent="1" source="znPlxjw7haN4OXwRD-w--28" target="znPlxjw7haN4OXwRD-w--37">
          <mxGeometry relative="1" as="geometry">
            <Array as="points">
              <mxPoint x="1040" y="1070" />
              <mxPoint x="1040" y="600" />
              <mxPoint x="1140" y="600" />
            </Array>
          </mxGeometry>
        </mxCell>
        <mxCell id="znPlxjw7haN4OXwRD-w--28" value="dname" style="rounded=0;whiteSpace=wrap;html=1;" vertex="1" parent="1">
          <mxGeometry x="120" y="1040" width="120" height="60" as="geometry" />
        </mxCell>
        <mxCell id="znPlxjw7haN4OXwRD-w--54" style="edgeStyle=orthogonalEdgeStyle;rounded=0;orthogonalLoop=1;jettySize=auto;html=1;" edge="1" parent="1" source="znPlxjw7haN4OXwRD-w--29">
          <mxGeometry relative="1" as="geometry">
            <mxPoint x="1240" y="570" as="targetPoint" />
            <Array as="points">
              <mxPoint x="300" y="990" />
              <mxPoint x="1010" y="990" />
              <mxPoint x="1010" y="640" />
              <mxPoint x="1240" y="640" />
            </Array>
          </mxGeometry>
        </mxCell>
        <mxCell id="znPlxjw7haN4OXwRD-w--29" value="rack_no" style="rounded=0;whiteSpace=wrap;html=1;" vertex="1" parent="1">
          <mxGeometry x="240" y="1040" width="120" height="60" as="geometry" />
        </mxCell>
        <mxCell id="znPlxjw7haN4OXwRD-w--32" value="id" style="rounded=0;whiteSpace=wrap;html=1;" vertex="1" parent="1">
          <mxGeometry x="590" y="740" width="120" height="60" as="geometry" />
        </mxCell>
        <mxCell id="znPlxjw7haN4OXwRD-w--33" value="ISBN" style="rounded=0;whiteSpace=wrap;html=1;" vertex="1" parent="1">
          <mxGeometry x="710" y="740" width="120" height="60" as="geometry" />
        </mxCell>
        <mxCell id="znPlxjw7haN4OXwRD-w--37" value="dname" style="rounded=0;whiteSpace=wrap;html=1;" vertex="1" parent="1">
          <mxGeometry x="1080" y="510" width="120" height="60" as="geometry" />
        </mxCell>
        <mxCell id="znPlxjw7haN4OXwRD-w--39" value="ISBN" style="rounded=0;whiteSpace=wrap;html=1;" vertex="1" parent="1">
          <mxGeometry x="1150" y="940" width="120" height="60" as="geometry" />
        </mxCell>
        <mxCell id="znPlxjw7haN4OXwRD-w--40" value="username" style="rounded=0;whiteSpace=wrap;html=1;" vertex="1" parent="1">
          <mxGeometry x="1270" y="940" width="120" height="60" as="geometry" />
        </mxCell>
        <mxCell id="znPlxjw7haN4OXwRD-w--41" value="borrowed date" style="rounded=0;whiteSpace=wrap;html=1;" vertex="1" parent="1">
          <mxGeometry x="1390" y="940" width="120" height="60" as="geometry" />
        </mxCell>
        <mxCell id="znPlxjw7haN4OXwRD-w--42" value="due date" style="rounded=0;whiteSpace=wrap;html=1;" vertex="1" parent="1">
          <mxGeometry x="1510" y="940" width="120" height="60" as="geometry" />
        </mxCell>
        <mxCell id="znPlxjw7haN4OXwRD-w--47" value="&lt;b&gt;&lt;font style=&quot;font-size: 24px&quot;&gt;account&lt;/font&gt;&lt;/b&gt;" style="text;html=1;strokeColor=none;fillColor=none;align=center;verticalAlign=middle;whiteSpace=wrap;rounded=0;" vertex="1" parent="1">
          <mxGeometry x="85" y="270" width="190" height="20" as="geometry" />
        </mxCell>
        <mxCell id="znPlxjw7haN4OXwRD-w--48" value="&lt;b&gt;&lt;font style=&quot;font-size: 24px&quot;&gt;book&lt;/font&gt;&lt;/b&gt;" style="text;html=1;strokeColor=none;fillColor=none;align=center;verticalAlign=middle;whiteSpace=wrap;rounded=0;" vertex="1" parent="1">
          <mxGeometry x="20" y="480" width="190" height="20" as="geometry" />
        </mxCell>
        <mxCell id="znPlxjw7haN4OXwRD-w--50" value="&lt;b&gt;&lt;font style=&quot;font-size: 24px&quot;&gt;author&lt;/font&gt;&lt;/b&gt;" style="text;html=1;strokeColor=none;fillColor=none;align=center;verticalAlign=middle;whiteSpace=wrap;rounded=0;" vertex="1" parent="1">
          <mxGeometry x="-10" y="710" width="190" height="20" as="geometry" />
        </mxCell>
        <mxCell id="znPlxjw7haN4OXwRD-w--51" value="&lt;b&gt;&lt;font style=&quot;font-size: 24px&quot;&gt;written by&lt;/font&gt;&lt;/b&gt;" style="text;html=1;strokeColor=none;fillColor=none;align=center;verticalAlign=middle;whiteSpace=wrap;rounded=0;" vertex="1" parent="1">
          <mxGeometry x="460" y="720" width="190" height="20" as="geometry" />
        </mxCell>
        <mxCell id="znPlxjw7haN4OXwRD-w--52" value="&lt;b&gt;&lt;font style=&quot;font-size: 24px&quot;&gt;division&lt;/font&gt;&lt;/b&gt;" style="text;html=1;strokeColor=none;fillColor=none;align=center;verticalAlign=middle;whiteSpace=wrap;rounded=0;" vertex="1" parent="1">
          <mxGeometry x="-10" y="880" width="190" height="20" as="geometry" />
        </mxCell>
        <mxCell id="znPlxjw7haN4OXwRD-w--53" value="&lt;b&gt;&lt;font style=&quot;font-size: 24px&quot;&gt;rack_no&lt;/font&gt;&lt;/b&gt;" style="text;html=1;strokeColor=none;fillColor=none;align=center;verticalAlign=middle;whiteSpace=wrap;rounded=0;" vertex="1" parent="1">
          <mxGeometry x="-20" y="1010" width="190" height="20" as="geometry" />
        </mxCell>
        <mxCell id="znPlxjw7haN4OXwRD-w--56" value="rack_no" style="rounded=0;whiteSpace=wrap;html=1;" vertex="1" parent="1">
          <mxGeometry x="1200" y="510" width="120" height="60" as="geometry" />
        </mxCell>
        <mxCell id="znPlxjw7haN4OXwRD-w--57" value="&lt;span style=&quot;font-size: 24px&quot;&gt;&lt;b&gt;borrwed&lt;/b&gt;&lt;/span&gt;" style="text;html=1;strokeColor=none;fillColor=none;align=center;verticalAlign=middle;whiteSpace=wrap;rounded=0;" vertex="1" parent="1">
          <mxGeometry x="1020" y="910" width="190" height="20" as="geometry" />
        </mxCell>
      </root>
    </mxGraphModel>
  </diagram>
</mxfile>
